# xmcd
# 
# Track frame offsets:
#     150
#     27415
#     40242
#     59912
#     78442
#     95997
#     110170
#     137437
#     150262
#     169935
#     188465
#     206020
# 
# Disc length: 2935
# 
# Revision: 2
# Processed by: cddbd v1.5.2PL0 Copyright (c) Steve Scherf et al.
# Submitted via: fre:ac v1.0.27
# 
DISCID=a50b750c
DTITLE=Daywind - Southern Gospel Hits Vol. 1
DYEAR=1994
DGENRE=Karaoke
TTITLE0=Calvary's The Reason Why
TTITLE1=God On The Mountain
TTITLE2=I Can't Even Walk
TTITLE3=The Lighthouse
TTITLE4=What A Lovely Name
TTITLE5=When I Get Carried Away
TTITLE6=Calvary's The Reason Why (DEMO)
TTITLE7=God On The Mountain (DEMO)
TTITLE8=I Can't Even Walk (DEMO)
TTITLE9=The Lighthouse (DEMO)
TTITLE10=What A Lovely Name (DEMO)
TTITLE11=When I Get Carried Away (DEMO)
EXTD=
EXTT0=
EXTT1=
EXTT2=
EXTT3=
EXTT4=
EXTT5=
EXTT6=
EXTT7=
EXTT8=
EXTT9=
EXTT10=
EXTT11=
PLAYORDER=
